<svg xmlns="http://www.w3.org/2000/svg" xmlns:xlink="http://www.w3.org/1999/xlink" version="1.1" x="0px" y="0px" viewBox="0 0 100 100" enable-background="new 0 0 100 100" xml:space="preserve"><g><g><path d="M74.477,51.014v-0.642h5.676v-8.111l-2.75-6.371H14.057v3.7H12.67v5.35h1.387v15.899H12.67v5.352h1.387v3.7h63.346    l2.75-6.371v-8.111h-5.676v-0.643H62.215v1.041h-3.058v1.141h-0.563v2.579h-1.56l-2.987,5.256l-11.513,2.191l-20.163-1.131V39.938    l20.163-1.132l11.513,2.193l2.987,5.255h1.56v2.58h0.563v1.141h3.058v1.04H74.477z M64.232,39.629c-0.1,0-0.189-0.071-0.204-0.171    l-0.13-0.81c-0.015-0.112,0.058-0.217,0.17-0.234c0.121-0.012,0.219,0.057,0.234,0.169l0.131,0.809    c0.02,0.112-0.059,0.218-0.169,0.236C64.254,39.628,64.241,39.629,64.232,39.629z M65.563,47.854c-0.1,0-0.183-0.073-0.201-0.173    l-0.296-1.828c-0.016-0.113,0.058-0.217,0.169-0.235c0.121-0.016,0.219,0.057,0.234,0.168l0.297,1.828    c0.02,0.113-0.055,0.217-0.17,0.235C65.587,47.854,65.576,47.854,65.563,47.854z M65.121,45.111c-0.1,0-0.189-0.07-0.204-0.171    l-0.296-1.828c-0.02-0.113,0.06-0.216,0.169-0.234c0.117-0.014,0.215,0.058,0.235,0.169l0.297,1.827    c0.016,0.113-0.059,0.218-0.169,0.236C65.139,45.11,65.129,45.111,65.121,45.111z M64.673,42.371c-0.1,0-0.183-0.071-0.201-0.172    l-0.296-1.827c-0.015-0.113,0.057-0.217,0.173-0.236c0.117-0.014,0.215,0.058,0.235,0.169l0.297,1.829    c0.016,0.112-0.061,0.216-0.174,0.234C64.697,42.37,64.688,42.371,64.673,42.371z M65.843,49.575c-0.099,0-0.186-0.071-0.2-0.17    l-0.133-0.811c-0.02-0.112,0.056-0.216,0.169-0.234c0.119-0.015,0.215,0.059,0.235,0.169l0.132,0.809    c0.016,0.112-0.059,0.217-0.17,0.235C65.864,49.574,65.854,49.575,65.843,49.575z M65.975,39.629    c-0.099,0-0.187-0.071-0.205-0.171l-0.127-0.81c-0.02-0.112,0.054-0.217,0.169-0.234c0.116-0.012,0.215,0.057,0.234,0.169    l0.132,0.809c0.016,0.112-0.06,0.218-0.169,0.236C65.994,39.628,65.983,39.629,65.975,39.629z M67.307,47.854    c-0.099,0-0.187-0.073-0.202-0.173l-0.297-1.828c-0.02-0.113,0.056-0.217,0.17-0.235c0.118-0.016,0.214,0.057,0.234,0.168    l0.296,1.828c0.015,0.113-0.058,0.217-0.169,0.235C67.325,47.854,67.316,47.854,67.307,47.854z M66.859,45.111    c-0.099,0-0.183-0.07-0.201-0.171l-0.297-1.828c-0.016-0.113,0.06-0.216,0.169-0.234c0.12-0.014,0.22,0.058,0.236,0.169    l0.296,1.827c0.019,0.113-0.057,0.218-0.169,0.236C66.883,45.11,66.872,45.111,66.859,45.111z M66.418,42.371    c-0.1,0-0.187-0.071-0.202-0.172l-0.297-1.827c-0.02-0.113,0.058-0.217,0.17-0.236c0.12-0.014,0.218,0.058,0.233,0.169    l0.296,1.829c0.016,0.112-0.059,0.216-0.169,0.234C66.44,42.37,66.427,42.371,66.418,42.371z M67.584,49.575    c-0.1,0-0.188-0.071-0.203-0.17l-0.131-0.811c-0.02-0.112,0.06-0.216,0.169-0.234c0.123-0.015,0.219,0.059,0.235,0.169    l0.131,0.809c0.019,0.112-0.057,0.217-0.17,0.235C67.605,49.574,67.594,49.575,67.584,49.575z M67.714,39.629    c-0.1,0-0.187-0.071-0.2-0.171l-0.133-0.81c-0.021-0.112,0.059-0.217,0.17-0.234c0.121-0.012,0.218,0.057,0.234,0.169l0.133,0.809    c0.02,0.112-0.06,0.218-0.17,0.236C67.739,39.628,67.724,39.629,67.714,39.629z M69.047,47.854c-0.1,0-0.189-0.073-0.203-0.173    l-0.297-1.828c-0.016-0.113,0.061-0.217,0.169-0.235c0.125-0.016,0.22,0.057,0.235,0.168l0.296,1.828    c0.021,0.113-0.058,0.217-0.168,0.235C69.068,47.854,69.055,47.854,69.047,47.854z M68.603,45.111c-0.1,0-0.187-0.07-0.2-0.171    l-0.297-1.828c-0.019-0.113,0.053-0.216,0.17-0.234c0.116-0.014,0.215,0.058,0.234,0.169l0.297,1.827    c0.016,0.113-0.06,0.218-0.17,0.236C68.624,45.11,68.612,45.111,68.603,45.111z M68.157,42.371c-0.1,0-0.185-0.071-0.203-0.172    l-0.297-1.827c-0.015-0.113,0.06-0.217,0.17-0.236c0.122-0.014,0.219,0.058,0.234,0.169l0.298,1.829    c0.019,0.112-0.055,0.216-0.17,0.234C68.18,42.37,68.17,42.371,68.157,42.371z M69.323,49.575c-0.095,0-0.185-0.071-0.203-0.17    l-0.13-0.811c-0.016-0.112,0.057-0.216,0.172-0.234c0.118-0.015,0.217,0.059,0.236,0.169l0.131,0.809    c0.016,0.112-0.06,0.217-0.173,0.235C69.346,49.574,69.335,49.575,69.323,49.575z M69.455,39.629c-0.1,0-0.183-0.071-0.202-0.171    l-0.133-0.81c-0.015-0.112,0.061-0.217,0.169-0.234c0.124-0.012,0.22,0.057,0.24,0.169l0.126,0.809    c0.02,0.112-0.054,0.218-0.169,0.236C69.478,39.628,69.469,39.629,69.455,39.629z M70.789,47.854    c-0.099,0-0.187-0.073-0.206-0.173l-0.292-1.828c-0.02-0.113,0.056-0.217,0.169-0.235c0.119-0.016,0.215,0.057,0.236,0.168    l0.296,1.828c0.016,0.113-0.061,0.217-0.169,0.235C70.809,47.854,70.798,47.854,70.789,47.854z M70.344,45.111    c-0.1,0-0.183-0.07-0.203-0.171l-0.296-1.828c-0.016-0.113,0.059-0.216,0.17-0.234c0.118-0.014,0.217,0.058,0.233,0.169    l0.296,1.827c0.02,0.113-0.054,0.218-0.169,0.236C70.366,45.11,70.353,45.111,70.344,45.111z M69.9,42.371    c-0.099,0-0.188-0.071-0.203-0.172l-0.296-1.827c-0.02-0.113,0.061-0.217,0.169-0.236c0.118-0.014,0.215,0.058,0.236,0.169    l0.296,1.829c0.016,0.112-0.061,0.216-0.169,0.234C69.919,42.37,69.909,42.371,69.9,42.371z M71.065,49.575    c-0.099,0-0.186-0.071-0.2-0.17l-0.132-0.811c-0.02-0.112,0.059-0.216,0.17-0.234c0.12-0.015,0.213,0.059,0.233,0.169l0.133,0.809    c0.019,0.112-0.061,0.217-0.169,0.235C71.09,49.574,71.075,49.575,71.065,49.575z M71.198,39.629    c-0.099,0-0.188-0.071-0.203-0.171l-0.13-0.81c-0.021-0.112,0.058-0.217,0.168-0.234c0.123-0.012,0.216,0.057,0.236,0.169    l0.13,0.809c0.016,0.112-0.058,0.218-0.168,0.236C71.216,39.628,71.207,39.629,71.198,39.629z M72.528,47.854    c-0.099,0-0.187-0.073-0.2-0.173l-0.296-1.828c-0.021-0.113,0.057-0.217,0.168-0.235c0.12-0.016,0.22,0.057,0.235,0.168    l0.296,1.828c0.021,0.113-0.059,0.217-0.17,0.235C72.553,47.854,72.538,47.854,72.528,47.854z M72.087,45.111    c-0.099,0-0.188-0.07-0.207-0.171l-0.292-1.828c-0.021-0.113,0.055-0.216,0.168-0.234c0.118-0.014,0.216,0.058,0.235,0.169    l0.297,1.827c0.016,0.113-0.058,0.218-0.169,0.236C72.104,45.11,72.096,45.111,72.087,45.111z M71.639,42.371    c-0.099,0-0.182-0.071-0.2-0.172l-0.296-1.827c-0.017-0.113,0.057-0.217,0.169-0.236c0.121-0.014,0.219,0.058,0.234,0.169    l0.297,1.829c0.02,0.112-0.057,0.216-0.169,0.234C71.663,42.37,71.652,42.371,71.639,42.371z M72.806,49.575    c-0.1,0-0.183-0.071-0.2-0.17l-0.134-0.811c-0.016-0.112,0.06-0.216,0.169-0.234c0.125-0.015,0.22,0.059,0.235,0.169l0.132,0.809    c0.021,0.112-0.054,0.217-0.169,0.235C72.829,49.574,72.819,49.575,72.806,49.575z M64.1,67.571c-0.009,0-0.018,0-0.031-0.001    c-0.112-0.019-0.185-0.123-0.17-0.236l0.13-0.809c0.021-0.109,0.124-0.185,0.236-0.168c0.11,0.018,0.188,0.121,0.169,0.234    l-0.131,0.811C64.288,67.5,64.199,67.571,64.1,67.571z M64.381,65.851c-0.014,0-0.021-0.001-0.032-0.005    c-0.116-0.018-0.188-0.122-0.173-0.234l0.296-1.828c0.021-0.112,0.12-0.184,0.235-0.17c0.113,0.019,0.189,0.123,0.174,0.236    l-0.297,1.827C64.564,65.778,64.476,65.851,64.381,65.851z M64.825,63.107c-0.01,0-0.024-0.001-0.035-0.001    c-0.109-0.018-0.188-0.124-0.169-0.235l0.296-1.828c0.017-0.111,0.116-0.184,0.236-0.169c0.11,0.019,0.185,0.122,0.169,0.234    l-0.297,1.829C65.007,63.037,64.924,63.107,64.825,63.107z M65.266,60.367c-0.009,0-0.018-0.001-0.031-0.003    c-0.111-0.018-0.185-0.122-0.169-0.234l0.296-1.828c0.021-0.113,0.119-0.184,0.234-0.17c0.115,0.018,0.189,0.123,0.17,0.235    l-0.297,1.828C65.453,60.296,65.365,60.367,65.266,60.367z M65.713,57.625c-0.013,0-0.023,0-0.034-0.001    c-0.113-0.019-0.188-0.124-0.169-0.236l0.133-0.809c0.016-0.109,0.113-0.183,0.233-0.168c0.111,0.018,0.186,0.121,0.17,0.234    l-0.132,0.811C65.896,57.555,65.813,57.625,65.713,57.625z M65.843,67.571c-0.013,0-0.022,0-0.031-0.001    c-0.115-0.019-0.188-0.123-0.169-0.236l0.127-0.809c0.021-0.109,0.122-0.185,0.239-0.168c0.109,0.018,0.185,0.121,0.169,0.234    l-0.132,0.811C66.026,67.5,65.943,67.571,65.843,67.571z M66.121,65.851c-0.011,0-0.024-0.001-0.032-0.005    c-0.112-0.018-0.189-0.122-0.17-0.234l0.297-1.828c0.016-0.112,0.115-0.184,0.233-0.17c0.11,0.019,0.185,0.123,0.169,0.236    l-0.296,1.827C66.308,65.778,66.221,65.851,66.121,65.851z M66.563,63.107c-0.009,0-0.019-0.001-0.033-0.001    c-0.109-0.018-0.185-0.124-0.169-0.235l0.297-1.828c0.021-0.111,0.12-0.184,0.235-0.169c0.112,0.019,0.188,0.122,0.169,0.234    l-0.296,1.829C66.752,63.037,66.662,63.107,66.563,63.107z M67.01,60.367c-0.014,0-0.023-0.001-0.032-0.003    c-0.114-0.018-0.189-0.122-0.17-0.234l0.297-1.828c0.017-0.113,0.114-0.184,0.234-0.17c0.111,0.018,0.184,0.123,0.169,0.235    l-0.296,1.828C67.193,60.296,67.11,60.367,67.01,60.367z M67.451,57.625c-0.008,0-0.021,0-0.032-0.001    c-0.109-0.019-0.188-0.124-0.169-0.236l0.131-0.809c0.017-0.109,0.114-0.183,0.234-0.168c0.113,0.018,0.188,0.121,0.17,0.234    l-0.131,0.811C67.641,57.555,67.551,57.625,67.451,57.625z M67.584,67.571c-0.01,0-0.023,0-0.033-0.001    c-0.111-0.019-0.19-0.123-0.17-0.236l0.133-0.809c0.017-0.109,0.115-0.185,0.234-0.168c0.11,0.018,0.189,0.121,0.17,0.234    l-0.133,0.811C67.771,67.5,67.684,67.571,67.584,67.571z M67.861,65.851c-0.01,0-0.021-0.001-0.034-0.005    c-0.11-0.018-0.185-0.122-0.17-0.234l0.297-1.828c0.02-0.112,0.122-0.184,0.235-0.17c0.115,0.019,0.188,0.123,0.17,0.236    l-0.298,1.827C68.048,65.778,67.961,65.851,67.861,65.851z M68.307,63.107c-0.014,0-0.021-0.001-0.031-0.001    c-0.117-0.018-0.188-0.124-0.17-0.235l0.297-1.828c0.016-0.111,0.115-0.184,0.234-0.169c0.11,0.019,0.186,0.122,0.17,0.234    l-0.297,1.829C68.49,63.037,68.406,63.107,68.307,63.107z M68.751,60.367c-0.01,0-0.021-0.001-0.035-0.003    c-0.108-0.018-0.185-0.122-0.169-0.234l0.297-1.828c0.02-0.113,0.114-0.184,0.235-0.17c0.11,0.018,0.188,0.123,0.168,0.235    l-0.296,1.828C68.938,60.296,68.85,60.367,68.751,60.367z M69.195,57.625c-0.014,0-0.021,0-0.033-0.001    c-0.115-0.019-0.188-0.124-0.172-0.236l0.13-0.809c0.021-0.109,0.119-0.183,0.236-0.168c0.113,0.018,0.188,0.121,0.173,0.234    l-0.131,0.811C69.379,57.555,69.29,57.625,69.195,57.625z M69.323,67.571c-0.009,0-0.02,0-0.034-0.001    c-0.108-0.019-0.184-0.123-0.169-0.236l0.133-0.809c0.02-0.109,0.118-0.185,0.233-0.168c0.115,0.018,0.188,0.121,0.169,0.234    l-0.126,0.811C69.511,67.5,69.422,67.571,69.323,67.571z M69.604,65.851c-0.008,0-0.022-0.001-0.033-0.005    c-0.108-0.018-0.188-0.122-0.169-0.234l0.296-1.828c0.018-0.112,0.12-0.184,0.236-0.17c0.108,0.019,0.185,0.123,0.169,0.236    l-0.296,1.827C69.788,65.778,69.703,65.851,69.604,65.851z M70.046,63.107c-0.009,0-0.02-0.001-0.031-0.001    c-0.111-0.018-0.186-0.124-0.17-0.235l0.296-1.828c0.021-0.111,0.12-0.184,0.234-0.169c0.115,0.019,0.188,0.122,0.169,0.234    l-0.296,1.829C70.232,63.037,70.146,63.107,70.046,63.107z M70.492,60.367c-0.012,0-0.021-0.001-0.032-0.003    c-0.113-0.018-0.188-0.122-0.169-0.234l0.292-1.828c0.021-0.113,0.12-0.184,0.24-0.17c0.108,0.018,0.185,0.123,0.169,0.235    l-0.296,1.828C70.677,60.296,70.591,60.367,70.492,60.367z M70.935,57.625c-0.009,0-0.023,0-0.031-0.001    c-0.111-0.019-0.189-0.124-0.17-0.236l0.132-0.809c0.017-0.109,0.114-0.183,0.235-0.168c0.108,0.018,0.188,0.121,0.169,0.234    l-0.133,0.811C71.121,57.555,71.034,57.625,70.935,57.625z M71.065,67.571c-0.008,0-0.021,0-0.032-0.001    c-0.11-0.019-0.188-0.123-0.168-0.236l0.13-0.809c0.018-0.109,0.113-0.185,0.236-0.168c0.11,0.018,0.184,0.121,0.168,0.234    l-0.13,0.811C71.255,67.5,71.165,67.571,71.065,67.571z M71.343,65.851c-0.009,0-0.017-0.001-0.031-0.005    c-0.112-0.018-0.186-0.122-0.169-0.234l0.296-1.828c0.021-0.112,0.12-0.184,0.235-0.17c0.112,0.019,0.188,0.123,0.169,0.236    l-0.297,1.827C71.531,65.778,71.442,65.851,71.343,65.851z M71.791,63.107c-0.014,0-0.024-0.001-0.035-0.001    c-0.113-0.018-0.188-0.124-0.168-0.235l0.292-1.828c0.02-0.111,0.12-0.184,0.239-0.169c0.111,0.019,0.185,0.122,0.169,0.234    l-0.297,1.829C71.974,63.037,71.891,63.107,71.791,63.107z M72.232,60.367c-0.01,0-0.021-0.001-0.032-0.003    c-0.111-0.018-0.188-0.122-0.168-0.234l0.296-1.828c0.016-0.113,0.114-0.184,0.233-0.17c0.111,0.018,0.19,0.123,0.17,0.235    l-0.296,1.828C72.42,60.296,72.332,60.367,72.232,60.367z M72.676,57.625c-0.01,0-0.021,0-0.035-0.001    c-0.109-0.019-0.185-0.124-0.169-0.236l0.134-0.809c0.02-0.109,0.118-0.183,0.233-0.168c0.115,0.018,0.189,0.121,0.169,0.234    l-0.132,0.811C72.862,57.555,72.775,57.625,72.676,57.625z M76.784,38.086h0.952v1.331h-0.952V38.086z M76.02,36.709l0.309,1.75    l-0.499,0.089L75.52,36.8L76.02,36.709z M76.784,66.364h0.952v1.331h-0.952V66.364z M75.829,67.234l0.499,0.088l-0.309,1.75    l-0.5-0.091L75.829,67.234z M62.894,55.755h0.784v3.729h-0.784V55.755z M14.782,39.829h0.407v4.979h-0.407V39.829z M14.782,61.337    h0.407v4.979h-0.407V61.337z M15.939,69.072h-0.953v-1.333h0.953V69.072z M15.939,38.042h-0.953v-1.333h0.953V38.042z     M62.894,46.298h0.784v3.728h-0.784V46.298z"/></g><g><polygon points="53.568,59.524 53.568,62.597 54.124,62.597 55.866,59.524   "/><path d="M91.227,51.821v0.425h-2.995v-0.212h-7.301v-0.643h-5.441v0.643H61.196v-0.039v-1.002h-3.064v-1.142h-1.311v-1.432h0.757    v-1.146h-1.133l-3.048-5.369l-10.929-2.076l-19.072,1.074v23.976l19.072,1.072l10.929-2.075l0.493-0.87h-0.729v-3.892h2.938    l0.347-0.606h1.133v-1.146h-0.757v-1.433h1.311v-1.142h3.064v-1.001v-0.037h14.293v0.641h5.441v-0.641h7.301v-0.217h2.995v0.431    h2.979v-2.141H91.227z M52.235,43.442h1.401v0.408h-0.994v3.076h2.593v0.407h-3V43.442z M23.968,41.304L26,42.116l16.588,1.331    l0.05,0.037l6.679,5.181h6.673v0.411h-6.813l-0.056-0.042l-6.686-5.188l-16.562-1.336l-2.055-0.824L23.968,41.304z M50.948,50.247    v5.289h-0.406v-5.289H50.948z M48.329,49.237v7.308H47.92v-7.308H48.329z M45.336,46.575v12.633h-0.409V46.575H45.336z     M42.774,58.567l-0.03,0.409L27.56,57.785v-9.941l0.187-0.015l14.998-1.177l0.03,0.409l-14.804,1.162v9.182L42.774,58.567z     M24.71,53.76v-1.739h0.84v1.739H24.71z M25.55,56.008v1.741h-0.84v-1.741H25.55z M24.71,49.774v-1.742h0.84v1.742H24.71z     M55.989,57.05h-6.673l-6.729,5.218l-0.062,0.004L26,63.599l-2.032,0.812l-0.149-0.381l2.117-0.836l16.499-1.324l6.741-5.23h6.813    V57.05z M57.071,55.739l-2.045-0.014l-2.646-1.005l0.146-0.383l2.606,0.993h1.938V55.739z M57.071,50.45h-1.938l-2.606,0.992    l-0.146-0.383l2.718-1.02h1.973V50.45z"/></g></g></svg>